<svg width="300" height="300" viewBox="0 0 300 300" fill="none" xmlns="http://www.w3.org/2000/svg">
<g clip-path="url(#clip0_2_16)">
<path d="M179.375 173.375L159.125 153.125M138.875 132.875L135.5 129.5C132.83 126.83 129.428 125.012 125.725 124.275C122.021 123.538 118.182 123.916 114.694 125.361C111.205 126.806 108.224 129.253 106.126 132.393C104.028 135.533 102.908 139.224 102.908 143C102.908 146.776 104.028 150.467 106.126 153.607C108.224 156.747 111.205 159.194 114.694 160.639C118.182 162.084 122.021 162.462 125.725 161.725C129.428 160.988 132.83 159.17 135.5 156.5L179.375 112.625" stroke="#D973D5" stroke-width="10" stroke-linecap="round" stroke-linejoin="round"/>
<path d="M179.375 139.625V112.625H152.375" stroke="#D973D5" stroke-width="10" stroke-linecap="round" stroke-linejoin="round"/>
</g>
<path d="M67.5 192.45C67.5 191.183 67.9 190.217 68.7 189.55C69.5 188.883 70.6667 188.55 72.2 188.55V204.3H89.95V192.45C89.95 191.183 90.35 190.217 91.15 189.55C91.95 188.883 93.1167 188.55 94.65 188.55V220.55C94.65 221.817 94.25 222.783 93.45 223.45C92.65 224.117 91.4833 224.45 89.95 224.45V208.45H72.2V220.55C72.2 221.817 71.8 222.783 71 223.45C70.2 224.117 69.0333 224.45 67.5 224.45V192.45ZM115.381 224.45C112.748 224.45 110.364 223.917 108.231 222.85C106.098 221.783 104.414 220.317 103.181 218.45C101.981 216.55 101.381 214.433 101.381 212.1V192.45C101.381 191.183 101.781 190.217 102.581 189.55C103.381 188.883 104.548 188.55 106.081 188.55V212.1C106.081 214.533 106.931 216.5 108.631 218C110.364 219.5 112.614 220.25 115.381 220.25C118.148 220.25 120.381 219.5 122.081 218C123.781 216.5 124.631 214.533 124.631 212.1V192.45C124.631 191.183 125.031 190.217 125.831 189.55C126.631 188.883 127.798 188.55 129.331 188.55V212.1C129.331 214.433 128.731 216.55 127.531 218.45C126.331 220.317 124.664 221.783 122.531 222.85C120.398 223.917 118.014 224.45 115.381 224.45ZM136.104 192.6C136.104 191.333 136.487 190.35 137.254 189.65C138.054 188.917 139.154 188.55 140.554 188.55L159.954 218.05L160.304 217.75L158.854 215.35V188.55C160.387 188.55 161.537 188.883 162.304 189.55C163.104 190.217 163.504 191.183 163.504 192.45V220.75C163.504 221.817 163.12 222.7 162.354 223.4C161.62 224.1 160.67 224.45 159.504 224.45L139.654 194.3L139.304 194.6L140.754 197V220.55C140.754 221.817 140.354 222.783 139.554 223.45C138.787 224.117 137.637 224.45 136.104 224.45V192.6ZM172.927 224C172.261 224 171.694 223.8 171.227 223.4C170.761 222.967 170.527 222.433 170.527 221.8V191.2C170.527 190.567 170.744 190.05 171.177 189.65C171.644 189.217 172.227 189 172.927 189H184.627C187.461 189 189.961 189.533 192.127 190.6C194.294 191.667 195.977 193.167 197.177 195.1C198.411 197 199.027 199.183 199.027 201.65V211.25C199.027 213.717 198.411 215.917 197.177 217.85C195.977 219.783 194.277 221.3 192.077 222.4C189.911 223.467 187.427 224 184.627 224H172.927ZM184.127 219.9C187.327 219.9 189.827 219.15 191.627 217.65C193.427 216.117 194.327 214 194.327 211.3V201.6C194.327 198.933 193.427 196.85 191.627 195.35C189.827 193.85 187.327 193.1 184.127 193.1H175.227V219.9H184.127ZM218.687 224.45C215.92 224.45 213.437 223.917 211.237 222.85C209.07 221.75 207.37 220.25 206.137 218.35C204.904 216.417 204.287 214.283 204.287 211.95V200.95C204.287 198.617 204.904 196.517 206.137 194.65C207.37 192.75 209.07 191.267 211.237 190.2C213.437 189.1 215.92 188.55 218.687 188.55C221.487 188.55 223.97 189.1 226.137 190.2C228.337 191.267 230.054 192.75 231.287 194.65C232.52 196.517 233.137 198.617 233.137 200.95V211.95C233.137 214.283 232.52 216.417 231.287 218.35C230.054 220.25 228.337 221.75 226.137 222.85C223.937 223.917 221.454 224.45 218.687 224.45ZM218.687 220.35C221.787 220.35 224.204 219.583 225.937 218.05C227.67 216.517 228.537 214.467 228.537 211.9V201.05C228.537 198.483 227.67 196.45 225.937 194.95C224.204 193.417 221.787 192.65 218.687 192.65C215.62 192.65 213.22 193.417 211.487 194.95C209.754 196.45 208.887 198.483 208.887 201.05V211.9C208.887 214.467 209.754 216.517 211.487 218.05C213.22 219.583 215.62 220.35 218.687 220.35Z" fill="#D973D5"/>
<defs>
<clipPath id="clip0_2_16">
<rect width="114.551" height="114.551" fill="white" transform="translate(68 143) rotate(-45)"/>
</clipPath>
</defs>
</svg>
