<svg width="300" height="300" viewBox="0 0 300 300" fill="none" xmlns="http://www.w3.org/2000/svg">
<path fill-rule="evenodd" clip-rule="evenodd" d="M207.318 139C208.417 134.84 209 130.485 209 126C209 96.7289 184.152 73 153.5 73C122.848 73 98 96.7289 98 126C98 130.485 98.5834 134.84 99.6818 139H50V174H129.937C137.089 177.207 145.075 179 153.5 179C161.925 179 169.911 177.207 177.063 174H253V139H207.318Z" fill="#1D92C4"/>
<mask id="path-2-outside-1_2_2" maskUnits="userSpaceOnUse" x="44" y="67" width="215" height="119" fill="black">
<rect fill="white" x="44" y="67" width="215" height="119"/>
<path fill-rule="evenodd" clip-rule="evenodd" d="M212.257 135.453C212.746 132.537 213 129.547 213 126.5C213 95.2959 186.361 70 153.5 70C120.639 70 94 95.2959 94 126.5C94 129.547 94.2539 132.537 94.7428 135.453H47V177.057H126.907C134.91 180.86 143.942 183 153.5 183C163.058 183 172.09 180.86 180.093 177.057H256V135.453H212.257Z"/>
</mask>
<path d="M212.257 135.453L209.298 134.957L208.712 138.453H212.257V135.453ZM94.7428 135.453V138.453H98.2877L97.7015 134.957L94.7428 135.453ZM47 135.453V132.453H44V135.453H47ZM47 177.057H44V180.057H47V177.057ZM126.907 177.057L128.195 174.347L127.583 174.057H126.907V177.057ZM180.093 177.057V174.057H179.417L178.805 174.347L180.093 177.057ZM256 177.057V180.057H259V177.057H256ZM256 135.453H259V132.453H256V135.453ZM210 126.5C210 129.38 209.76 132.204 209.298 134.957L215.216 135.949C215.732 132.87 216 129.714 216 126.5H210ZM153.5 73C184.852 73 210 97.0971 210 126.5H216C216 93.4947 187.87 67 153.5 67V73ZM97 126.5C97 97.0971 122.148 73 153.5 73V67C119.13 67 91 93.4947 91 126.5H97ZM97.7015 134.957C97.24 132.204 97 129.38 97 126.5H91C91 129.714 91.2679 132.87 91.7841 135.949L97.7015 134.957ZM47 138.453H94.7428V132.453H47V138.453ZM50 177.057V135.453H44V177.057H50ZM126.907 174.057H47V180.057H126.907V174.057ZM153.5 180C144.393 180 135.8 177.961 128.195 174.347L125.619 179.766C134.02 183.758 143.491 186 153.5 186V180ZM178.805 174.347C171.2 177.961 162.607 180 153.5 180V186C163.509 186 172.98 183.758 181.381 179.766L178.805 174.347ZM256 174.057H180.093V180.057H256V174.057ZM253 135.453V177.057H259V135.453H253ZM212.257 138.453H256V132.453H212.257V138.453Z" fill="#1D91C3" mask="url(#path-2-outside-1_2_2)"/>
<path d="M72.165 169H57.465V144.815H60.93V165.955H68.7V162.945L72.165 159.515V169ZM91.374 165.955L88.329 169H79.264L76.254 165.955V147.86L79.264 144.815H88.329L91.374 147.86V165.955ZM87.909 165.955V147.86H79.719V165.955H87.909ZM112.672 169H109.242V159.935H101.017V169H97.552V147.86L100.597 144.815H112.672V169ZM111.412 147.86H101.017V159.515L103.642 156.89H109.242V150.03L111.412 147.86ZM136.439 168.965H129.754L123.874 147.895H120.899L123.069 149.96V168.965H119.604V144.78H126.324L132.134 165.92H135.144L132.974 163.715V144.78H136.439V168.965ZM163.688 147.86H151.788V153.88H159.803L162.778 156.89V165.955L159.803 169H151.333L148.323 165.955V163.54L151.788 160.215V165.955H159.313V156.89H151.333L148.323 153.88V147.86L151.333 144.815H160.643L163.688 147.86ZM183.977 169H180.512V156.89H172.322V169H168.857V144.815H172.322V156.47L174.877 153.88H180.512V144.815H183.977V169ZM205.778 169H202.348V159.935H194.123V169H190.658V147.86L193.703 144.815H205.778V169ZM204.518 147.86H194.123V159.515L196.748 156.89H202.348V150.03L204.518 147.86ZM227.829 169H224.364L224.434 166.55L217.504 159.585L219.849 156.89H224.364V147.86H216.174V169H212.709V150.835L215.754 147.86H212.289V144.815H224.784L227.829 147.86V156.47L224.784 159.515H221.949V159.97L227.829 165.78V169ZM248.952 169H245.487V156.89H237.297V169H233.832V144.815H237.297V156.33L245.067 148.735V144.815H248.532L248.497 149.085L243.702 153.74V154.195H245.907L248.952 157.205V169Z" fill="white"/>
<g clip-path="url(#clip0_2_2)">
<path d="M175.479 90.4152C159.266 86.5627 148.92 97.1181 148.92 97.1181L161.744 107.891C163.643 101.417 175.479 90.4152 175.479 90.4152Z" fill="#B2C1C0"/>
<path d="M154.346 95.2709L166.732 99.901C166.732 99.901 167.43 99.0275 167.985 98.4182C160.191 94.3315 154.346 95.2709 154.346 95.2709Z" fill="#879191"/>
<path d="M181.647 96.4654C181.647 96.4654 182.864 100.53 182.193 103.462C184.812 108.509 182.935 112.836 181.464 115.565C176.293 125.16 156.171 126.244 156.171 126.244L122.858 97.8408C124.898 94.0554 148.773 90.2233 166.203 99.6164C172.278 102.89 177.964 111.52 180.904 110.492C182.577 109.917 182.274 105.209 181.217 104.64C181.217 104.64 180.072 106.976 178.168 107.768C181.407 102.812 181.647 96.4654 181.647 96.4654Z" fill="#B2C1C0"/>
<path d="M130.517 120.939C130.517 120.939 138.582 105.974 156.421 107.862C156.421 107.862 155.675 129.271 130.517 120.939" fill="#FF717F"/>
<path d="M143.64 108.813C143.64 108.813 135.767 116.044 133.592 119.87C133.592 119.87 150.537 123.208 154.369 107.665L143.64 108.813Z" fill="#ED4C5C"/>
<path opacity="0.5" d="M148.578 108.293C148.578 108.293 142.65 111.915 139.513 116.472C136.375 121.029 148.324 118.039 154.151 108.911L148.578 108.293" fill="#3E4347"/>
<path d="M130.492 112.974L132.401 116.388L133.723 112.67L135.32 116.03L136.69 112.224L138.537 116.173L139.806 111.291L141.633 115.91L143.267 110.77L145.182 115.437L146.504 110.243L148.528 114.287L149.749 109.492L151.176 114.01L152.77 108.735C152.77 108.735 142.861 109.416 130.492 112.974" fill="white"/>
<path d="M132.401 116.388L130.492 112.974L132.071 112.575L132.401 116.388ZM133.635 112.623L135.232 115.983L135.274 111.689L133.635 112.623ZM136.602 112.177L138.449 116.126L138.383 110.979L136.602 112.177ZM139.806 111.291L141.633 115.91L141.614 110.675L139.806 111.291ZM143.179 110.723L145.094 115.39L145.001 109.66L143.179 110.723ZM146.416 110.196L148.44 114.24L148.056 109.262L146.416 110.196ZM149.749 109.492L151.176 114.01L151.334 108.87L149.749 109.492Z" fill="#B2C1C0"/>
<path d="M151.122 115.798L149.659 113.874L149.001 117.836C149.963 117.105 150.701 116.367 151.122 115.798M148.635 118.094L146.435 115.431L145.77 119.616C146.948 119.116 147.815 118.561 148.635 118.094ZM145.228 119.779L143.265 116.676L142.207 120.536C143.243 120.3 144.28 120.063 145.228 119.779ZM141.712 120.611L139.899 117.02L138.753 120.833C139.87 120.867 140.812 120.807 141.712 120.611ZM138.346 120.955L136.587 117.053C136.587 117.053 135.509 120.107 135.217 120.859C136.375 121.029 137.405 121.016 138.346 120.955" fill="white"/>
<path d="M135.393 120.954L133.641 116.829C133.058 118.332 132.359 120.682 132.359 120.682C133.429 120.804 134.411 120.879 135.393 120.954Z" fill="white"/>
<path d="M150.058 116.929L149.619 113.739L148.96 117.701C149.367 117.579 149.78 117.234 150.058 116.929M147.043 118.94L146.482 115.343L145.817 119.528C146.224 119.407 146.677 119.197 147.043 118.94ZM143.467 120.307L143.177 116.629L142.119 120.489C142.566 120.503 143.06 120.428 143.467 120.307ZM140.141 120.786L139.899 117.02L138.753 120.833C139.288 120.894 139.735 120.908 140.141 120.786M136.599 121.036L136.627 117.189L135.21 121.083C135.705 121.008 136.152 121.022 136.599 121.036M133.517 120.852L133.729 116.876L132.447 120.729C132.759 120.784 133.118 120.75 133.517 120.852ZM130.127 113.231C130.127 113.231 158.35 110.606 157.999 107.463L143.553 105.813L130.127 113.231" fill="#B2C1C0"/>
<path d="M145.497 103.68C147.102 104.544 149.103 103.945 149.968 102.34C150.833 100.736 150.233 98.7344 148.628 97.8698C147.024 97.0052 145.023 97.6049 144.158 99.2093C143.293 100.814 143.893 102.815 145.497 103.68Z" fill="#3E4347"/>
<path d="M138.13 98.8009C138.13 98.8009 141.272 101.403 144.598 99.4465C147.924 97.4903 150.484 98.6425 153.924 100.269C153.924 100.269 149.266 96.0549 145.534 96.6564C141.802 97.2579 140.839 99.4656 138.13 98.8009" fill="#76807F"/>
<path opacity="0.5" d="M164.527 109.05C164.527 109.05 166.187 108.922 166.837 108.137C167.623 107.311 169.412 105.889 168.837 104.216C168.837 104.216 169.947 105.95 168.097 107.907C166.383 109.823 165.591 109.396 164.527 109.05M165.644 110.561C165.644 110.561 167.209 110.609 168.083 109.83C168.909 109.14 170.786 107.766 170.434 106.099C170.434 106.099 171.409 107.874 169.431 109.648C167.405 111.51 166.66 110.995 165.644 110.561M167.202 112.309C167.202 112.309 168.813 112.269 169.552 111.531C170.29 110.793 172.255 109.466 171.727 107.705C171.727 107.705 172.702 109.48 170.812 111.301C169.01 113.17 168.217 112.743 167.202 112.309" fill="#3E4347"/>
<path d="M166.352 121.052C166.352 121.052 170.165 122.198 170.577 123.33L168.545 123.938L166.352 121.052Z" fill="#879191"/>
<path d="M166.352 121.052C173.835 125.085 166.9 142.59 166.9 142.59C166.9 142.59 164.988 129.064 155.921 124.178L166.352 121.052V121.052Z" fill="#B2C1C0"/>
<path d="M122.858 97.8408C123.38 96.8724 134.757 100.845 140.823 107.295C146.889 113.745 156.037 101.408 159.165 104.457C162.598 107.783 152.645 118.664 159.117 126.468C147.758 129.207 134.125 127.313 130.605 120.986C155.392 125.37 156.109 109.285 156.109 109.285C156.109 109.285 141.43 115.233 130.255 113.414C126.158 112.796 121.197 100.922 122.858 97.8408Z" fill="#E8E8E8"/>
<path d="M133.739 104.841C133.739 104.841 135.622 104.72 136.38 106.264C136.719 106.901 135.676 107.361 134.619 106.792C133.698 106.182 134.477 105.579 133.739 104.841" fill="#3E4347"/>
</g>
<defs>
<clipPath id="clip0_2_2">
<rect width="64" height="64" fill="white" transform="translate(139.361 63) rotate(28.3201)"/>
</clipPath>
</defs>
</svg>
